<svg xmlns="http://www.w3.org/2000/svg" viewBox="0 0 1200 630" width="1200" height="630">
  <defs>
    <linearGradient id="bgGrad" x1="0%" y1="0%" x2="100%" y2="100%">
      <stop offset="0%" stop-color="#0f001a"/>
      <stop offset="50%" stop-color="#1a0030"/>
      <stop offset="100%" stop-color="#0d0016"/>
    </linearGradient>
    <linearGradient id="accentGrad" x1="0%" y1="0%" x2="100%" y2="100%">
      <stop offset="0%" stop-color="#a855f7"/>
      <stop offset="100%" stop-color="#7c3aed"/>
    </linearGradient>
    <linearGradient id="redGrad" x1="0%" y1="0%" x2="100%" y2="100%">
      <stop offset="0%" stop-color="#ef4444"/>
      <stop offset="100%" stop-color="#dc2626"/>
    </linearGradient>
    <linearGradient id="greenGrad" x1="0%" y1="0%" x2="100%" y2="100%">
      <stop offset="0%" stop-color="#22c55e"/>
      <stop offset="100%" stop-color="#16a34a"/>
    </linearGradient>
    <linearGradient id="ambarGrad" x1="0%" y1="0%" x2="100%" y2="100%">
      <stop offset="0%" stop-color="#f59e0b"/>
      <stop offset="100%" stop-color="#d97706"/>
    </linearGradient>
    <filter id="glow">
      <feGaussianBlur stdDeviation="3" result="blur"/>
      <feMerge>
        <feMergeNode in="blur"/>
        <feMergeNode in="SourceGraphic"/>
      </feMerge>
    </filter>
    <filter id="softGlow">
      <feGaussianBlur stdDeviation="15" result="blur"/>
      <feMerge>
        <feMergeNode in="blur"/>
        <feMergeNode in="SourceGraphic"/>
      </feMerge>
    </filter>
  </defs>

  <!-- Background -->
  <rect width="1200" height="630" fill="url(#bgGrad)"/>

  <!-- Grid pattern -->
  <g opacity="0.04">
    <line x1="0" y1="0" x2="1200" y2="0" stroke="#a855f7" stroke-width="0.5"/>
    <line x1="0" y1="30" x2="1200" y2="30" stroke="#a855f7" stroke-width="0.5"/>
    <line x1="0" y1="60" x2="1200" y2="60" stroke="#a855f7" stroke-width="0.5"/>
    <line x1="0" y1="90" x2="1200" y2="90" stroke="#a855f7" stroke-width="0.5"/>
    <line x1="0" y1="120" x2="1200" y2="120" stroke="#a855f7" stroke-width="0.5"/>
    <line x1="0" y1="150" x2="1200" y2="150" stroke="#a855f7" stroke-width="0.5"/>
    <line x1="0" y1="180" x2="1200" y2="180" stroke="#a855f7" stroke-width="0.5"/>
    <line x1="0" y1="210" x2="1200" y2="210" stroke="#a855f7" stroke-width="0.5"/>
    <line x1="0" y1="240" x2="1200" y2="240" stroke="#a855f7" stroke-width="0.5"/>
    <line x1="0" y1="270" x2="1200" y2="270" stroke="#a855f7" stroke-width="0.5"/>
    <line x1="0" y1="300" x2="1200" y2="300" stroke="#a855f7" stroke-width="0.5"/>
    <line x1="0" y1="330" x2="1200" y2="330" stroke="#a855f7" stroke-width="0.5"/>
    <line x1="0" y1="360" x2="1200" y2="360" stroke="#a855f7" stroke-width="0.5"/>
    <line x1="0" y1="390" x2="1200" y2="390" stroke="#a855f7" stroke-width="0.5"/>
    <line x1="0" y1="420" x2="1200" y2="420" stroke="#a855f7" stroke-width="0.5"/>
    <line x1="0" y1="450" x2="1200" y2="450" stroke="#a855f7" stroke-width="0.5"/>
    <line x1="0" y1="480" x2="1200" y2="480" stroke="#a855f7" stroke-width="0.5"/>
    <line x1="0" y1="510" x2="1200" y2="510" stroke="#a855f7" stroke-width="0.5"/>
    <line x1="0" y1="540" x2="1200" y2="540" stroke="#a855f7" stroke-width="0.5"/>
    <line x1="0" y1="570" x2="1200" y2="570" stroke="#a855f7" stroke-width="0.5"/>
    <line x1="0" y1="600" x2="1200" y2="600" stroke="#a855f7" stroke-width="0.5"/>
    <line x1="0" y1="630" x2="1200" y2="630" stroke="#a855f7" stroke-width="0.5"/>
    <line x1="0" y1="0" x2="0" y2="630" stroke="#a855f7" stroke-width="0.5"/>
    <line x1="30" y1="0" x2="30" y2="630" stroke="#a855f7" stroke-width="0.5"/>
    <line x1="60" y1="0" x2="60" y2="630" stroke="#a855f7" stroke-width="0.5"/>
    <line x1="90" y1="0" x2="90" y2="630" stroke="#a855f7" stroke-width="0.5"/>
    <line x1="120" y1="0" x2="120" y2="630" stroke="#a855f7" stroke-width="0.5"/>
    <line x1="150" y1="0" x2="150" y2="630" stroke="#a855f7" stroke-width="0.5"/>
    <line x1="180" y1="0" x2="180" y2="630" stroke="#a855f7" stroke-width="0.5"/>
    <line x1="210" y1="0" x2="210" y2="630" stroke="#a855f7" stroke-width="0.5"/>
    <line x1="240" y1="0" x2="240" y2="630" stroke="#a855f7" stroke-width="0.5"/>
    <line x1="270" y1="0" x2="270" y2="630" stroke="#a855f7" stroke-width="0.5"/>
    <line x1="300" y1="0" x2="300" y2="630" stroke="#a855f7" stroke-width="0.5"/>
    <line x1="330" y1="0" x2="330" y2="630" stroke="#a855f7" stroke-width="0.5"/>
    <line x1="360" y1="0" x2="360" y2="630" stroke="#a855f7" stroke-width="0.5"/>
    <line x1="390" y1="0" x2="390" y2="630" stroke="#a855f7" stroke-width="0.5"/>
    <line x1="420" y1="0" x2="420" y2="630" stroke="#a855f7" stroke-width="0.5"/>
    <line x1="450" y1="0" x2="450" y2="630" stroke="#a855f7" stroke-width="0.5"/>
    <line x1="480" y1="0" x2="480" y2="630" stroke="#a855f7" stroke-width="0.5"/>
    <line x1="510" y1="0" x2="510" y2="630" stroke="#a855f7" stroke-width="0.5"/>
    <line x1="540" y1="0" x2="540" y2="630" stroke="#a855f7" stroke-width="0.5"/>
    <line x1="570" y1="0" x2="570" y2="630" stroke="#a855f7" stroke-width="0.5"/>
    <line x1="600" y1="0" x2="600" y2="630" stroke="#a855f7" stroke-width="0.5"/>
    <line x1="630" y1="0" x2="630" y2="630" stroke="#a855f7" stroke-width="0.5"/>
    <line x1="660" y1="0" x2="660" y2="630" stroke="#a855f7" stroke-width="0.5"/>
    <line x1="690" y1="0" x2="690" y2="630" stroke="#a855f7" stroke-width="0.5"/>
    <line x1="720" y1="0" x2="720" y2="630" stroke="#a855f7" stroke-width="0.5"/>
    <line x1="750" y1="0" x2="750" y2="630" stroke="#a855f7" stroke-width="0.5"/>
    <line x1="780" y1="0" x2="780" y2="630" stroke="#a855f7" stroke-width="0.5"/>
    <line x1="810" y1="0" x2="810" y2="630" stroke="#a855f7" stroke-width="0.5"/>
    <line x1="840" y1="0" x2="840" y2="630" stroke="#a855f7" stroke-width="0.5"/>
    <line x1="870" y1="0" x2="870" y2="630" stroke="#a855f7" stroke-width="0.5"/>
    <line x1="900" y1="0" x2="900" y2="630" stroke="#a855f7" stroke-width="0.5"/>
    <line x1="930" y1="0" x2="930" y2="630" stroke="#a855f7" stroke-width="0.5"/>
    <line x1="960" y1="0" x2="960" y2="630" stroke="#a855f7" stroke-width="0.5"/>
    <line x1="990" y1="0" x2="990" y2="630" stroke="#a855f7" stroke-width="0.5"/>
    <line x1="1020" y1="0" x2="1020" y2="630" stroke="#a855f7" stroke-width="0.5"/>
    <line x1="1050" y1="0" x2="1050" y2="630" stroke="#a855f7" stroke-width="0.5"/>
    <line x1="1080" y1="0" x2="1080" y2="630" stroke="#a855f7" stroke-width="0.5"/>
    <line x1="1110" y1="0" x2="1110" y2="630" stroke="#a855f7" stroke-width="0.5"/>
    <line x1="1140" y1="0" x2="1140" y2="630" stroke="#a855f7" stroke-width="0.5"/>
    <line x1="1170" y1="0" x2="1170" y2="630" stroke="#a855f7" stroke-width="0.5"/>
    <line x1="1200" y1="0" x2="1200" y2="630" stroke="#a855f7" stroke-width="0.5"/>
  </g>

  <!-- Decorative circles -->
  <circle cx="150" cy="100" r="180" fill="#7c3aed" opacity="0.06"/>
  <circle cx="1050" cy="530" r="200" fill="#a855f7" opacity="0.05"/>

  <!-- Terminal window mockup -->
  <g transform="translate(80, 80)">
    <!-- Window frame -->
    <rect x="0" y="0" width="500" height="320" rx="8" fill="#1a1a2e" stroke="#333" stroke-width="1.5"/>
    <!-- Title bar -->
    <rect x="0" y="0" width="500" height="32" rx="8" fill="#16213e"/>
    <rect x="0" y="16" width="500" height="16" fill="#16213e"/>
    <!-- Window dots -->
    <circle cx="16" cy="16" r="5" fill="#ef4444"/>
    <circle cx="34" cy="16" r="5" fill="#f59e0b"/>
    <circle cx="52" cy="16" r="5" fill="#22c55e"/>
    <!-- Terminal title -->
    <text x="250" y="21" text-anchor="middle" fill="#666" font-family="monospace" font-size="11" font-weight="600">opencloud-debug — bash</text>
    <!-- Terminal lines -->
    <text x="16" y="60" fill="#22c55e" font-family="monospace" font-size="13">$</text>
    <text x="30" y="60" fill="#e2e8f0" font-family="monospace" font-size="13">helm test opencloud -n opendesk</text>
    <text x="16" y="80" fill="#ef4444" font-family="monospace" font-size="13">✗ Login test: FAILED (HTTP 403)</text>
    <text x="16" y="100" fill="#e2e8f0" font-family="monospace" font-size="13">  Expected: 302 redirect to login page</text>
    <text x="16" y="120" fill="#e2e8f0" font-family="monospace" font-size="13">  Got: Forbidden — no user auto-provisioned</text>

    <text x="16" y="150" fill="#f59e0b" font-family="monospace" font-size="13">ℹ Checking Keycloak user federation...</text>
    <text x="16" y="170" fill="#e2e8f0" font-family="monospace" font-size="13">  → LDAP search filter: (objectClass=inetOrgPerson)</text>
    <text x="16" y="190" fill="#ef4444" font-family="monospace" font-size="13">  → Missing: equality rule for eduPersonAffiliation</text>
    <text x="16" y="210" fill="#e2e8f0" font-family="monospace" font-size="13">  → Applying attributeTransform... $OCIS_USER_ID</text>
    <text x="16" y="230" fill="#22c55e" font-family="monospace" font-size="13">  ✓ Fixed: schema patched, users synced</text>

    <text x="16" y="258" fill="#22c55e" font-family="monospace" font-size="13">$</text>
    <text x="30" y="258" fill="#e2e8f0" font-family="monospace" font-size="13">curl -s -o /dev/null -w "%{http_code}" https://opencloud.example.cloud</text>
    <text x="16" y="278" fill="#22c55e" font-family="monospace" font-size="13">302 ✓</text>

    <text x="16" y="306" fill="#666" font-family="monospace" font-size="11">3 bugs fixed · 1h 47m of debugging</text>
  </g>

  <!-- Magnifying glass icon on the right -->
  <g transform="translate(750, 140)" filter="url(#softGlow)">
    <circle cx="100" cy="100" r="70" fill="none" stroke="url(#accentGrad)" stroke-width="3" opacity="0.3"/>
  </g>
  <g transform="translate(750, 140)">
    <!-- Glass handle -->
    <line x1="155" y1="155" x2="200" y2="200" stroke="#a855f7" stroke-width="5" stroke-linecap="round"/>
    <!-- Glass circle -->
    <circle cx="100" cy="100" r="70" fill="none" stroke="url(#accentGrad)" stroke-width="3"/>
    <!-- Glass inner -->
    <circle cx="100" cy="100" r="66" fill="#7c3aed" opacity="0.08"/>
    <!-- Bug icons inside the glass -->
    <text x="80" y="95" font-family="monospace" font-size="24" fill="#ef4444" opacity="0.8">BUG</text>
    <text x="76" y="120" font-family="monospace" font-size="14" fill="#f59e0b" opacity="0.8">#1</text>
    <text x="104" y="120" font-family="monospace" font-size="14" fill="#f59e0b" opacity="0.8">#2</text>
    <text x="132" y="120" font-family="monospace" font-size="14" fill="#f59e0b" opacity="0.8">#3</text>
    <!-- Shine -->
    <ellipse cx="80" cy="75" rx="25" ry="12" fill="white" opacity="0.06"/>
  </g>

  <!-- Headline -->
  <text x="80" y="480" fill="white" font-family="system-ui, -apple-system, sans-serif" font-size="32" font-weight="800">
    Three Bugs That Blocked
  </text>
  <text x="80" y="520" fill="white" font-family="system-ui, -apple-system, sans-serif" font-size="32" font-weight="800">
    OpenCloud OIDC Login
  </text>

  <!-- Subtitle -->
  <text x="80" y="555" fill="#a58eb5" font-family="system-ui, -apple-system, sans-serif" font-size="16">
    A Debugging War Story — LDAP, Keycloak &amp; Helm
  </text>

  <!-- Status badges row -->
  <g transform="translate(80, 580)">
    <rect x="0" y="0" width="80" height="24" rx="12" fill="#ef4444" opacity="0.15"/>
    <text x="40" y="16" text-anchor="middle" fill="#ef4444" font-family="monospace" font-size="11" font-weight="600">debugging</text>
    <rect x="92" y="0" width="70" height="24" rx="12" fill="#a855f7" opacity="0.15"/>
    <text x="127" y="16" text-anchor="middle" fill="#a855f7" font-family="monospace" font-size="11" font-weight="600">opencloud</text>
    <rect x="174" y="0" width="60" height="24" rx="12" fill="#f59e0b" opacity="0.15"/>
    <text x="204" y="16" text-anchor="middle" fill="#f59e0b" font-family="monospace" font-size="11" font-weight="600">oidc</text>
    <rect x="246" y="0" width="55" height="24" rx="12" fill="#22c55e" opacity="0.15"/>
    <text x="273" y="16" text-anchor="middle" fill="#22c55e" font-family="monospace" font-size="11" font-weight="600">resolved</text>
  </g>

  <!-- openDesk Edu wordmark -->
  <g transform="translate(80, 465)">
    <circle cx="0" cy="-8" r="2.5" fill="#a855f7"/>
    <circle cx="8" cy="-8" r="2.5" fill="#a855f7" opacity="0.6"/>
    <circle cx="16" cy="-8" r="2.5" fill="#a855f7" opacity="0.3"/>
  </g>
</svg>
